HIERARCHY
ROOT hip
{
  OFFSET 0 0 0
  CHANNELS 6 Xposition Yposition Zposition Zrotation Yrotation Xrotation
  JOINT abdomen
  {
    OFFSET 0 20.6881 -0.73152
    CHANNELS 3 Zrotation Xrotation Yrotation
    JOINT chest
    {
      OFFSET 0 11.7043 -0.48768
      CHANNELS 3 Zrotation Xrotation Yrotation
      JOINT neck
      {
        OFFSET 0 22.1894 -2.19456
        CHANNELS 3 Zrotation Xrotation Yrotation
        JOINT head
        {
          OFFSET -0.24384 7.07133 1.2192
          CHANNELS 3 Zrotation Xrotation Yrotation
          JOINT leftEye
          {
            OFFSET 4.14528 8.04674 8.04672
            CHANNELS 3 Zrotation Xrotation Yrotation
            End Site
            {
              OFFSET 1 0 0
            }
          }
          JOINT rightEye
          {
            OFFSET -3.6576 8.04674 8.04672
            CHANNELS 3 Zrotation Xrotation Yrotation
            End Site
            {
              OFFSET 1 0 0
            }
          }
        }
      }
      JOINT rCollar
      {
        OFFSET -2.68224 19.2634 -4.8768
        CHANNELS 3 Zrotation Xrotation Yrotation
        JOINT rShldr
        {
          OFFSET -8.77824 -1.95073 1.46304
          CHANNELS 3 Zrotation Xrotation Yrotation
          JOINT rForeArm
          {
            OFFSET -28.1742 -1.7115 0.48768
            CHANNELS 3 Zrotation Xrotation Yrotation
            JOINT rHand
            {
              OFFSET -22.5879 0.773209 7.07136
              CHANNELS 3 Zrotation Xrotation Yrotation
              JOINT rThumb1
              {
                OFFSET -1.2192 -0.487915 3.41376
                CHANNELS 3 Zrotation Xrotation Yrotation
                JOINT rThumb2
                {
                  OFFSET -3.37035 -0.52449 3.41376
                  CHANNELS 3 Zrotation Xrotation Yrotation
                  End Site
                  {
                    OFFSET -1.78271 -1.18214 1.43049
                  }
                }
              }
              JOINT rIndex1
              {
                OFFSET -7.75947 0.938293 5.60832
                CHANNELS 3 Zrotation Xrotation Yrotation
                JOINT rIndex2
                {
                  OFFSET -2.54057 -0.884171 1.56538
                  CHANNELS 3 Zrotation Xrotation Yrotation
                  End Site
                  {
                    OFFSET -1.62519 -0.234802 1.16502
                  }
                }
              }
              JOINT rMid1
              {
                OFFSET -8.24714 1.18213 3.41376
                CHANNELS 3 Zrotation Xrotation Yrotation
                JOINT rMid2
                {
                  OFFSET -3.10165 -0.590103 1.0647
                  CHANNELS 3 Zrotation Xrotation Yrotation
                  End Site
                  {
                    OFFSET -2.48547 -0.328903 0.83742
                  }
                }
              }
              JOINT rRing1
              {
                OFFSET -8.82822 0.546677 1.51678
                CHANNELS 3 Zrotation Xrotation Yrotation
                JOINT rRing2
                {
                  OFFSET -2.60934 -0.819778 -0.0198488
                  CHANNELS 3 Zrotation Xrotation Yrotation
                  End Site
                  {
                    OFFSET -2.33842 -0.294052 0.168128
                  }
                }
              }
              JOINT rPinky1
              {
                OFFSET -8.27202 -0.0477905 -0.4584
                CHANNELS 3 Zrotation Xrotation Yrotation
                JOINT rPinky2
                {
                  OFFSET -1.82734 -0.647385 -0.700984
                  CHANNELS 3 Zrotation Xrotation Yrotation
                  End Site
                  {
                    OFFSET -1.69225 -0.51767 -0.607171
                  }
                }
              }
            }
          }
        }
      }
      JOINT lCollar
      {
        OFFSET 2.68224 19.2634 -4.8768
        CHANNELS 3 Zrotation Xrotation Yrotation
        JOINT lShldr
        {
          OFFSET 8.77824 -1.95073 1.46304
          CHANNELS 3 Zrotation Xrotation Yrotation
          JOINT lForeArm
          {
            OFFSET 28.1742 -1.7115 0.48768
            CHANNELS 3 Zrotation Xrotation Yrotation
            JOINT lHand
            {
              OFFSET 22.5879 0.773209 7.07136
              CHANNELS 3 Zrotation Xrotation Yrotation
              JOINT lThumb1
              {
                OFFSET 1.2192 -0.487915 3.41376
                CHANNELS 3 Zrotation Xrotation Yrotation
                JOINT lThumb2
                {
                  OFFSET 3.37035 -0.52449 3.41376
                  CHANNELS 3 Zrotation Xrotation Yrotation
                  End Site
                  {
                    OFFSET 1.78271 -1.18214 1.43049
                  }
                }
              }
              JOINT lIndex1
              {
                OFFSET 7.75947 0.938293 5.60832
                CHANNELS 3 Zrotation Xrotation Yrotation
                JOINT lIndex2
                {
                  OFFSET 2.54057 -0.884171 1.56538
                  CHANNELS 3 Zrotation Xrotation Yrotation
                  End Site
                  {
                    OFFSET 1.62519 -0.234802 1.16502
                  }
                }
              }
              JOINT lMid1
              {
                OFFSET 8.24714 1.18213 3.41376
                CHANNELS 3 Zrotation Xrotation Yrotation
                JOINT lMid2
                {
                  OFFSET 3.10165 -0.590103 1.0647
                  CHANNELS 3 Zrotation Xrotation Yrotation
                  End Site
                  {
                    OFFSET 2.48547 -0.328903 0.83742
                  }
                }
              }
              JOINT lRing1
              {
                OFFSET 8.82822 0.546677 1.51678
                CHANNELS 3 Zrotation Xrotation Yrotation
                JOINT lRing2
                {
                  OFFSET 2.60934 -0.819778 -0.0198488
                  CHANNELS 3 Zrotation Xrotation Yrotation
                  End Site
                  {
                    OFFSET 2.33842 -0.294052 0.168128
                  }
                }
              }
              JOINT lPinky1
              {
                OFFSET 8.27202 -0.0477905 -0.4584
                CHANNELS 3 Zrotation Xrotation Yrotation
                JOINT lPinky2
                {
                  OFFSET 1.82734 -0.647385 -0.700984
                  CHANNELS 3 Zrotation Xrotation Yrotation
                  End Site
                  {
                    OFFSET 1.69225 -0.51767 -0.607171
                  }
                }
              }
            }
          }
        }
      }
    }
  }
  JOINT rButtock
  {
    OFFSET -8.77824 4.35084 1.2192
    CHANNELS 3 Zrotation Xrotation Yrotation
    JOINT rThigh
    {
      OFFSET 0 -1.70687 -2.19456
      CHANNELS 3 Zrotation Xrotation Yrotation
      JOINT rShin
      {
        OFFSET 0 -36.8199 0.73152
        CHANNELS 3 Zrotation Xrotation Yrotation
        JOINT rFoot
        {
          OFFSET 0.73152 -45.1104 -5.12064
          CHANNELS 3 Zrotation Xrotation Yrotation
          End Site
          {
            OFFSET -1.1221 -3.69964 12.103
          }
        }
      }
    }
  }
  JOINT lButtock
  {
    OFFSET 8.77824 4.35084 1.2192
    CHANNELS 3 Zrotation Xrotation Yrotation
    JOINT lThigh
    {
      OFFSET 0 -1.70687 -2.19456
      CHANNELS 3 Zrotation Xrotation Yrotation
      JOINT lShin
      {
        OFFSET 0 -36.8199 0.73152
        CHANNELS 3 Zrotation Xrotation Yrotation
        JOINT lFoot
        {
          OFFSET -0.73152 -45.1104 -5.12064
          CHANNELS 3 Zrotation Xrotation Yrotation
          End Site
          {
            OFFSET 1.1221 -3.69964 12.103
          }
        }
      }
    }
  }
}
MOTION
Frames:	5
Frame Time:	0.03333
0.0 0.0 0.0 0.0 0.0 0.0 0.0 0.0 0.0 0.0 0.0 0.0 0.0 0.0 0.0 0.0 0.0 0.0 0.0 0.0 0.0 0.0 0.0 0.0 0.0 0.0 0.0 0.0 0.0 0.0 0.0 0.0 0.0 0.0 0.0 0.0 0.0 0.0 0.0 0.0 0.0 0.0 0.0 0.0 0.0 0.0 0.0 0.0 0.0 0.0 0.0 0.0 0.0 0.0 0.0 0.0 0.0 0.0 0.0 0.0 0.0 0.0 0.0 0.0 0.0 0.0 0.0 0.0 0.0 0.0 0.0 0.0 0.0 0.0 0.0 0.0 0.0 0.0 0.0 0.0 0.0 0.0 0.0 0.0 0.0 0.0 0.0 0.0 0.0 0.0 0.0 0.0 0.0 0.0 0.0 0.0 0.0 0.0 0.0 0.0 0.0 0.0 0.0 0.0 0.0 0.0 0.0 0.0 0.0 0.0 0.0 0.0 0.0 0.0 0.0 0.0 0.0 0.0 0.0 0.0 0.0 0.0 0.0 0.0 0.0 0.0 0.0 0.0 0.0 0.0 0.0 0.0
-0.1046 29.3381 1.1252 -0.725956 55.503756 -2.471097 -1.547656 0.455755 69.338092 5.911435 10.601252 -10.8047 115.067117 -23.810025 -49.689317 76.810563 -68.345808 -151.492148 144.048984 9.015826 -27.3163 98.466636 15.451968 -17.885103 -61.641176 -34.31368 154.491997 -132.063802 -4.597303 145.128696 -23.044339 56.245126 48.735892 95.530748 52.365072 -53.93354 11.158999 -17.182909 -113.101742 117.010731 -13.970995 38.633707 92.746174 84.495036 -85.235592 -1.070897 -13.402267 -71.382107 51.623811 63.986024 11.222131 153.114849 -22.546679 -127.733123 138.477701 -1.751638 -175.070838 -42.027803 36.332937 -124.496515 48.765048 -47.987185 -106.264284 83.032114 13.305967 108.00851 -110.346088 12.983718 -14.023095 -13.292468 70.377362 44.411124 -71.254192 -81.059524 -90.889747 -113.768822 22.439745 63.07637 -7.606787 30.557944 -54.11869 -138.795556 -35.968662 117.047478 -117.065356 60.093639 109.931572 -154.634998 56.604729 142.951389 22.438857 1.221677 114.574127 39.771641 -18.755319 34.760416 143.513122 40.691546 4.912284 -86.898438 -0.93854 36.496552 -173.704383 51.220546 -160.160263 -49.463988 -7.90645 108.054094 -2.615694 -51.412726 -83.20066 -56.908906 7.451186 106.455036 7.568738 -4.070278 46.136717 50.338912 -33.836398 -106.546038 -30.734074 26.143664 -131.237164 -7.713866 35.148204 -172.113342 -1.49644 -8.063178 39.059694 73.996919 -49.575731 51.49224
-0.0542 51.0476 0.6910999999999999 -0.196364 14.455128 0.857371 0.966418 2.254013 -106.20116 -6.55778 -5.299781 112.45367 13.983213 54.869277 145.126574 161.259934 82.216898 -11.807116 89.578807 -2.086274 -2.101664 -105.606245 7.953179 10.466766 174.941159 -75.271605 108.429006 171.914202 37.042547 -178.419712 -121.044004 39.993862 34.952821 144.604618 -27.577624 151.879752 -167.106052 -51.544257 150.477875 -168.468294 56.908484 85.815212 -173.426575 56.5747 165.529579 -154.6632 -34.900411 104.266974 -143.451104 -73.145639 -122.218978 -159.621598 -5.545737 -168.31085 89.548833 8.378209 -94.809478 -131.158011 -75.290737 -53.843229 -21.909905 -73.65876 68.61942 -110.058623 2.194425 -110.946637 124.355629 -11.56804 -137.876869 63.041936 48.829879 -40.4024 -135.666581 30.298342 55.36135 14.342074 26.766094 15.771793 -1.199968 38.702652 -38.896168 -140.383132 -6.491021 -168.500343 -151.175104 -81.880436 -120.920027 163.41137 49.507565 -24.603698 -133.978614 56.819582 121.891859 1.673275 -2.285659 -27.602246 138.639493 47.726545 40.625595 39.944814 -17.23958 -169.526969 117.485143 -61.421192 84.751489 129.165348 -21.630503 -54.844406 -13.475849 -17.798187 -11.703443 7.043857 0.658516 -87.961871 -23.403553 1.264529 79.808978 -108.75612 -64.156882 67.697963 -77.635286 -0.58498 -82.516704 75.650528 69.166437 2.843334 -20.944437 26.100631 -97.64319 122.243112 45.788749 -157.125757
0.09870000000000001 68.1598 0.6953 0.850447 11.096054 3.786624 -4.034558 8.682702 -125.029293 2.207891 2.058929 134.339952 -8.447056 47.365776 -100.879131 70.791143 1.591711 56.686925 168.392568 -9.207126 76.772549 -47.30478 -7.064881 16.045429 -5.885789 48.818391 27.201991 141.187448 -61.817572 101.803171 177.828553 -31.394217 61.661552 162.249913 0.144186 168.865886 -172.891265 -2.782494 126.998352 -97.064162 -21.279775 -62.108035 -161.248718 37.351675 157.043813 -22.351244 21.902812 -27.300236 43.69177 62.203189 -58.628373 -74.677636 46.458823 15.960567 -96.808051 -18.300508 -64.868515 -54.629264 -31.566222 -121.73405 -94.86448 -37.522424 -19.189644 64.5701 -11.840412 17.674591 142.654338 -0.88734 -143.098027 82.922388 57.966106 -41.880283 9.865513 -60.384547 137.887256 -174.20213 -24.336369 -134.148415 -171.447004 -39.891983 -68.341136 105.090439 -46.313553 -110.380486 176.154808 -4.84529 -146.038042 -176.69508 51.353804 116.415913 -91.794981 74.988726 77.599005 4.286867 -40.220036 -2.563233 91.328487 25.824831 -99.315905 -59.61536 52.123103 -14.819979 42.062783 67.104138 -94.558216 -113.283288 -53.08073 -33.900516 5.238514 -12.978333 23.407538 -26.279023 -19.186428 -103.933553 -57.126358 25.058605 -135.974907 -65.940649 -12.892056 177.551566 42.081781 38.049666 50.856691 -68.38428 -7.631851 -81.867566 -46.096903 43.181122 -127.432894 -75.569328 -25.706152 169.469594
-0.3692 71.0259 1.4312 4.008962 8.839629 5.660831 -10.237379 18.904987 -88.343128 16.744603 2.837669 107.405363 1.242643 44.093973 -82.232774 56.49444 -14.227941 45.840898 -168.791505 9.968352 83.258941 -16.885939 -0.940517 6.329979 -125.091679 -58.374123 -154.746177 -55.85518 -55.269026 -70.222939 -168.444556 5.362721 -107.630177 -5.599215 21.818353 18.54847 -171.435271 -7.731896 110.115103 -173.67358 0.608104 165.879338 -114.088873 73.592792 93.041984 -164.92267 69.348892 105.16102 17.125221 -61.36004 -42.568047 166.944337 -16.395485 80.999243 131.751637 74.314736 -137.040853 129.443321 -32.24977 140.614311 -64.696921 -19.684116 -17.35054 -140.119612 28.19988 -85.293181 155.563763 0.312071 -138.011673 66.540698 17.400493 -16.684335 -4.770256 -13.62859 120.847461 176.046366 -23.078082 -145.560344 -154.994198 -52.139994 -86.901193 136.44393 -56.690165 -133.611467 158.330749 62.477622 -115.458996 28.083143 16.223406 80.730303 138.386059 -28.594996 -174.696251 93.867926 61.634006 -84.414198 115.961457 30.355248 -137.108998 134.258422 -26.794485 -159.383281 -27.834467 -22.037788 -24.921838 157.464138 -5.561473 68.306819 -126.736504 87.307488 -51.73939 159.968532 27.285553 -2.938514 -14.342968 67.566889 34.714226 143.596707 -41.340555 14.014854 173.039408 65.821369 5.451305 -169.720184 37.445211 153.487637 54.09011 -45.092534 169.625252 36.589318 -37.945003 116.269103
